<svg width="40" height="40" viewBox="0 0 40 40" fill="none" xmlns="http://www.w3.org/2000/svg">
<path d="M20.0015 20H0C0.000789433 25.3046 2.10843 30.3917 5.85934 34.1423C9.61026 37.893 14.6973 40 20.0015 40V20Z" fill="#5447B5"/>
<path d="M0 20H20.0015C20.0007 14.6954 17.893 9.60833 14.1421 5.85769C10.3912 2.10704 5.3042 -5.87508e-08 0 0V0V20Z" fill="#8C4FFB"/>
<path d="M39.9999 20H20.0015C20.0015 14.6957 22.1084 9.6086 25.8589 5.85787C29.6093 2.10714 34.696 0 39.9999 0V0V20Z" fill="#26EADD"/>
<path d="M20.0015 20H39.9999C39.9999 25.3043 37.893 30.3914 34.1425 34.1421C30.3921 37.8929 25.3054 40 20.0015 40V40V20Z" fill="#6F7DFF"/>
</svg>
